<?xml version="1.0" encoding="UTF-8" standalone="no"?>
<!DOCTYPE svg PUBLIC "-//W3C//DTD SVG 1.1//EN"
 "http://www.w3.org/Graphics/SVG/1.1/DTD/svg11.dtd">
<!-- Generated by graphviz version 2.40.1 (20161225.0304)
 -->
<!-- Title: dependencies Pages: 1 -->
<svg width="1985pt" height="284pt"
 viewBox="0.00 0.00 1985.00 284.00" xmlns="http://www.w3.org/2000/svg" xmlns:xlink="http://www.w3.org/1999/xlink">
<g id="graph0" class="graph" transform="scale(1 1) rotate(0) translate(4 280)">
<title>dependencies</title>
<polygon fill="#ffffff" stroke="transparent" points="-4,4 -4,-280 1981,-280 1981,4 -4,4"/>
<text text-anchor="start" x="967.5091" y="-42.4" font-family="sans-serif" font-weight="bold" font-size="14.00" fill="#000000">Legend</text>
<polygon fill="#ffffb3" stroke="transparent" points="754.5,-10 754.5,-30 774.5,-30 774.5,-10 754.5,-10"/>
<text text-anchor="start" x="778.129" y="-15.4" font-family="sans-serif" font-size="14.00" fill="#000000"> &#160;Declarations</text>
<polygon fill="#8dd3c7" stroke="transparent" points="867.5,-10 867.5,-30 887.5,-30 887.5,-10 867.5,-10"/>
<text text-anchor="start" x="891.2251" y="-15.4" font-family="sans-serif" font-size="14.00" fill="#000000"> &#160;Module</text>
<polygon fill="#80b1d3" stroke="transparent" points="953.5,-10 953.5,-30 973.5,-30 973.5,-10 953.5,-10"/>
<text text-anchor="start" x="977.2812" y="-15.4" font-family="sans-serif" font-size="14.00" fill="#000000"> &#160;Bootstrap</text>
<polygon fill="#fdb462" stroke="transparent" points="1050.5,-10 1050.5,-30 1070.5,-30 1070.5,-10 1050.5,-10"/>
<text text-anchor="start" x="1074.1732" y="-15.4" font-family="sans-serif" font-size="14.00" fill="#000000"> &#160;Providers</text>
<polygon fill="#fb8072" stroke="transparent" points="1146.5,-10 1146.5,-30 1166.5,-30 1166.5,-10 1146.5,-10"/>
<text text-anchor="start" x="1170.2258" y="-15.4" font-family="sans-serif" font-size="14.00" fill="#000000"> &#160;Exports</text>
<g id="clust1" class="cluster">
<title>cluster_AppModule</title>
<polygon fill="none" stroke="#000000" stroke-dasharray="1,5" points="8,-70 8,-268 1663,-268 1663,-70 8,-70"/>
</g>
<g id="clust2" class="cluster">
<title>cluster_AppModule_declarations</title>
<polygon fill="none" stroke="#000000" points="168,-78 168,-130 1655,-130 1655,-78 168,-78"/>
</g>
<g id="clust13" class="cluster">
<title>cluster_AppModule_imports</title>
<polygon fill="none" stroke="#000000" points="16,-78 16,-130 160,-130 160,-78 16,-78"/>
</g>
<g id="clust15" class="cluster">
<title>cluster_AppModule_bootstrap</title>
<polygon fill="none" stroke="#000000" points="790,-208 790,-260 914,-260 914,-208 790,-208"/>
</g>
<g id="clust23" class="cluster">
<title>cluster_LazyModule</title>
<polygon fill="none" stroke="#000000" stroke-dasharray="1,5" points="1671,-70 1671,-195 1969,-195 1969,-70 1671,-70"/>
</g>
<g id="clust24" class="cluster">
<title>cluster_LazyModule_declarations</title>
<polygon fill="none" stroke="#000000" points="1835,-78 1835,-130 1961,-130 1961,-78 1835,-78"/>
</g>
<g id="clust26" class="cluster">
<title>cluster_LazyModule_imports</title>
<polygon fill="none" stroke="#000000" points="1679,-78 1679,-130 1827,-130 1827,-78 1679,-78"/>
</g>
<!-- AppComponent -->
<g id="node1" class="node">
<title>AppComponent</title>
<polygon fill="#ffffb3" stroke="#000000" points="1646.9399,-122 1541.0601,-122 1541.0601,-86 1646.9399,-86 1646.9399,-122"/>
<text text-anchor="middle" x="1594" y="-99.8" font-family="Times,serif" font-size="14.00" fill="#000000">AppComponent</text>
</g>
<!-- AppModule -->
<g id="node11" class="node">
<title>AppModule</title>
<polygon fill="#8dd3c7" stroke="#000000" points="893.6571,-187 890.6571,-191 869.6571,-191 866.6571,-187 810.3429,-187 810.3429,-151 893.6571,-151 893.6571,-187"/>
<text text-anchor="middle" x="852" y="-164.8" font-family="Times,serif" font-size="14.00" fill="#000000">AppModule</text>
</g>
<!-- AppComponent&#45;&gt;AppModule -->
<g id="edge1" class="edge">
<title>AppComponent&#45;&gt;AppModule</title>
<path fill="none" stroke="#000000" d="M1594,-122.2479C1594,-145.0179 1594,-181 1594,-181 1594,-181 903.7507,-181 903.7507,-181"/>
<polygon fill="#000000" stroke="#000000" points="903.7508,-177.5001 893.7507,-181 903.7507,-184.5001 903.7508,-177.5001"/>
</g>
<!-- Homework1Component -->
<g id="node2" class="node">
<title>Homework1Component</title>
<polygon fill="#ffffb3" stroke="#000000" points="1523.8117,-122 1372.1883,-122 1372.1883,-86 1523.8117,-86 1523.8117,-122"/>
<text text-anchor="middle" x="1448" y="-99.8" font-family="Times,serif" font-size="14.00" fill="#000000">Homework1Component</text>
</g>
<!-- Homework1Component&#45;&gt;AppModule -->
<g id="edge2" class="edge">
<title>Homework1Component&#45;&gt;AppModule</title>
<path fill="none" stroke="#000000" d="M1448,-122.2843C1448,-143.3211 1448,-175 1448,-175 1448,-175 903.9096,-175 903.9096,-175"/>
<polygon fill="#000000" stroke="#000000" points="903.9096,-171.5001 893.9096,-175 903.9095,-178.5001 903.9096,-171.5001"/>
</g>
<!-- Lesson1Component -->
<g id="node3" class="node">
<title>Lesson1Component</title>
<polygon fill="#ffffb3" stroke="#000000" points="1353.9888,-122 1226.0112,-122 1226.0112,-86 1353.9888,-86 1353.9888,-122"/>
<text text-anchor="middle" x="1290" y="-99.8" font-family="Times,serif" font-size="14.00" fill="#000000">Lesson1Component</text>
</g>
<!-- Lesson1Component&#45;&gt;AppModule -->
<g id="edge3" class="edge">
<title>Lesson1Component&#45;&gt;AppModule</title>
<path fill="none" stroke="#000000" d="M1290,-122.1061C1290,-141.3391 1290,-169 1290,-169 1290,-169 903.9973,-169 903.9973,-169"/>
<polygon fill="#000000" stroke="#000000" points="903.9973,-165.5001 893.9973,-169 903.9972,-172.5001 903.9973,-165.5001"/>
</g>
<!-- Lesson2Component -->
<g id="node4" class="node">
<title>Lesson2Component</title>
<polygon fill="#ffffb3" stroke="#000000" points="1207.9888,-122 1080.0112,-122 1080.0112,-86 1207.9888,-86 1207.9888,-122"/>
<text text-anchor="middle" x="1144" y="-99.8" font-family="Times,serif" font-size="14.00" fill="#000000">Lesson2Component</text>
</g>
<!-- Lesson2Component&#45;&gt;AppModule -->
<g id="edge4" class="edge">
<title>Lesson2Component&#45;&gt;AppModule</title>
<path fill="none" stroke="#000000" d="M1144,-122.0225C1144,-139.3734 1144,-163 1144,-163 1144,-163 903.8365,-163 903.8365,-163"/>
<polygon fill="#000000" stroke="#000000" points="903.8365,-159.5001 893.8365,-163 903.8364,-166.5001 903.8365,-159.5001"/>
</g>
<!-- Lesson3Component -->
<g id="node5" class="node">
<title>Lesson3Component</title>
<polygon fill="#ffffb3" stroke="#000000" points="1061.9888,-122 934.0112,-122 934.0112,-86 1061.9888,-86 1061.9888,-122"/>
<text text-anchor="middle" x="998" y="-99.8" font-family="Times,serif" font-size="14.00" fill="#000000">Lesson3Component</text>
</g>
<!-- Lesson3Component&#45;&gt;AppModule -->
<g id="edge5" class="edge">
<title>Lesson3Component&#45;&gt;AppModule</title>
<path fill="none" stroke="#000000" d="M998,-122.2396C998,-137.5706 998,-157 998,-157 998,-157 903.8377,-157 903.8377,-157"/>
<polygon fill="#000000" stroke="#000000" points="903.8378,-153.5001 893.8377,-157 903.8377,-160.5001 903.8378,-153.5001"/>
</g>
<!-- Lesson4Component -->
<g id="node6" class="node">
<title>Lesson4Component</title>
<polygon fill="#ffffb3" stroke="#000000" points="915.9888,-122 788.0112,-122 788.0112,-86 915.9888,-86 915.9888,-122"/>
<text text-anchor="middle" x="852" y="-99.8" font-family="Times,serif" font-size="14.00" fill="#000000">Lesson4Component</text>
</g>
<!-- Lesson4Component&#45;&gt;AppModule -->
<g id="edge6" class="edge">
<title>Lesson4Component&#45;&gt;AppModule</title>
<path fill="none" stroke="#000000" d="M852,-122.1061C852,-122.1061 852,-140.991 852,-140.991"/>
<polygon fill="#000000" stroke="#000000" points="848.5001,-140.9909 852,-150.991 855.5001,-140.991 848.5001,-140.9909"/>
</g>
<!-- Lesson5Component -->
<g id="node7" class="node">
<title>Lesson5Component</title>
<polygon fill="#ffffb3" stroke="#000000" points="769.9888,-122 642.0112,-122 642.0112,-86 769.9888,-86 769.9888,-122"/>
<text text-anchor="middle" x="706" y="-99.8" font-family="Times,serif" font-size="14.00" fill="#000000">Lesson5Component</text>
</g>
<!-- Lesson5Component&#45;&gt;AppModule -->
<g id="edge7" class="edge">
<title>Lesson5Component&#45;&gt;AppModule</title>
<path fill="none" stroke="#000000" d="M706,-122.2396C706,-137.5706 706,-157 706,-157 706,-157 800.1623,-157 800.1623,-157"/>
<polygon fill="#000000" stroke="#000000" points="800.1623,-160.5001 810.1623,-157 800.1622,-153.5001 800.1623,-160.5001"/>
</g>
<!-- Lesson7Component -->
<g id="node8" class="node">
<title>Lesson7Component</title>
<polygon fill="#ffffb3" stroke="#000000" points="623.9888,-122 496.0112,-122 496.0112,-86 623.9888,-86 623.9888,-122"/>
<text text-anchor="middle" x="560" y="-99.8" font-family="Times,serif" font-size="14.00" fill="#000000">Lesson7Component</text>
</g>
<!-- Lesson7Component&#45;&gt;AppModule -->
<g id="edge8" class="edge">
<title>Lesson7Component&#45;&gt;AppModule</title>
<path fill="none" stroke="#000000" d="M560,-122.0225C560,-139.3734 560,-163 560,-163 560,-163 800.1635,-163 800.1635,-163"/>
<polygon fill="#000000" stroke="#000000" points="800.1636,-166.5001 810.1635,-163 800.1635,-159.5001 800.1636,-166.5001"/>
</g>
<!-- Lesson8Component -->
<g id="node9" class="node">
<title>Lesson8Component</title>
<polygon fill="#ffffb3" stroke="#000000" points="477.9888,-122 350.0112,-122 350.0112,-86 477.9888,-86 477.9888,-122"/>
<text text-anchor="middle" x="414" y="-99.8" font-family="Times,serif" font-size="14.00" fill="#000000">Lesson8Component</text>
</g>
<!-- Lesson8Component&#45;&gt;AppModule -->
<g id="edge9" class="edge">
<title>Lesson8Component&#45;&gt;AppModule</title>
<path fill="none" stroke="#000000" d="M414,-122.1061C414,-141.3391 414,-169 414,-169 414,-169 800.0027,-169 800.0027,-169"/>
<polygon fill="#000000" stroke="#000000" points="800.0028,-172.5001 810.0027,-169 800.0027,-165.5001 800.0028,-172.5001"/>
</g>
<!-- ModelDrivenComponent -->
<g id="node10" class="node">
<title>ModelDrivenComponent</title>
<polygon fill="#ffffb3" stroke="#000000" points="332.2548,-122 175.7452,-122 175.7452,-86 332.2548,-86 332.2548,-122"/>
<text text-anchor="middle" x="254" y="-99.8" font-family="Times,serif" font-size="14.00" fill="#000000">ModelDrivenComponent</text>
</g>
<!-- ModelDrivenComponent&#45;&gt;AppModule -->
<g id="edge10" class="edge">
<title>ModelDrivenComponent&#45;&gt;AppModule</title>
<path fill="none" stroke="#000000" d="M254,-122.2843C254,-143.3211 254,-175 254,-175 254,-175 799.9498,-175 799.9498,-175"/>
<polygon fill="#000000" stroke="#000000" points="799.9498,-178.5001 809.9498,-175 799.9498,-171.5001 799.9498,-178.5001"/>
</g>
<!-- AppComponent  -->
<g id="node13" class="node">
<title>AppComponent </title>
<polygon fill="#80b1d3" stroke="#000000" points="906.439,-252 797.561,-252 797.561,-216 906.439,-216 906.439,-252"/>
<text text-anchor="middle" x="852" y="-229.8" font-family="Times,serif" font-size="14.00" fill="#000000">AppComponent </text>
</g>
<!-- AppModule&#45;&gt;AppComponent  -->
<g id="edge12" class="edge">
<title>AppModule&#45;&gt;AppComponent </title>
<path fill="none" stroke="#000000" stroke-dasharray="1,5" d="M852,-187.1061C852,-187.1061 852,-205.991 852,-205.991"/>
<polygon fill="#000000" stroke="#000000" points="848.5001,-205.9909 852,-215.991 855.5001,-205.991 848.5001,-205.9909"/>
</g>
<!-- AppRoutingModule -->
<g id="node12" class="node">
<title>AppRoutingModule</title>
<polygon fill="#8dd3c7" stroke="#000000" points="152.2744,-122 149.2744,-126 128.2744,-126 125.2744,-122 23.7256,-122 23.7256,-86 152.2744,-86 152.2744,-122"/>
<text text-anchor="middle" x="88" y="-99.8" font-family="Times,serif" font-size="14.00" fill="#000000">AppRoutingModule</text>
</g>
<!-- AppRoutingModule&#45;&gt;AppModule -->
<g id="edge11" class="edge">
<title>AppRoutingModule&#45;&gt;AppModule</title>
<path fill="none" stroke="#000000" d="M88,-122.2479C88,-145.0179 88,-181 88,-181 88,-181 800.109,-181 800.109,-181"/>
<polygon fill="#000000" stroke="#000000" points="800.1091,-184.5001 810.109,-181 800.109,-177.5001 800.1091,-184.5001"/>
</g>
<!-- LazyComponent -->
<g id="node14" class="node">
<title>LazyComponent</title>
<polygon fill="#ffffb3" stroke="#000000" points="1952.8147,-122 1843.1853,-122 1843.1853,-86 1952.8147,-86 1952.8147,-122"/>
<text text-anchor="middle" x="1898" y="-99.8" font-family="Times,serif" font-size="14.00" fill="#000000">LazyComponent</text>
</g>
<!-- LazyModule -->
<g id="node15" class="node">
<title>LazyModule</title>
<polygon fill="#8dd3c7" stroke="#000000" points="1868.5328,-187 1865.5328,-191 1844.5328,-191 1841.5328,-187 1781.4672,-187 1781.4672,-151 1868.5328,-151 1868.5328,-187"/>
<text text-anchor="middle" x="1825" y="-164.8" font-family="Times,serif" font-size="14.00" fill="#000000">LazyModule</text>
</g>
<!-- LazyComponent&#45;&gt;LazyModule -->
<g id="edge13" class="edge">
<title>LazyComponent&#45;&gt;LazyModule</title>
<path fill="none" stroke="#000000" d="M1856.0544,-122.1061C1856.0544,-122.1061 1856.0544,-140.991 1856.0544,-140.991"/>
<polygon fill="#000000" stroke="#000000" points="1852.5544,-140.9909 1856.0544,-150.991 1859.5544,-140.991 1852.5544,-140.9909"/>
</g>
<!-- LazyRoutingModule -->
<g id="node16" class="node">
<title>LazyRoutingModule</title>
<polygon fill="#8dd3c7" stroke="#000000" points="1819.1499,-122 1816.1499,-126 1795.1499,-126 1792.1499,-122 1686.8501,-122 1686.8501,-86 1819.1499,-86 1819.1499,-122"/>
<text text-anchor="middle" x="1753" y="-99.8" font-family="Times,serif" font-size="14.00" fill="#000000">LazyRoutingModule</text>
</g>
<!-- LazyRoutingModule&#45;&gt;LazyModule -->
<g id="edge14" class="edge">
<title>LazyRoutingModule&#45;&gt;LazyModule</title>
<path fill="none" stroke="#000000" d="M1800.2795,-122.1061C1800.2795,-122.1061 1800.2795,-140.991 1800.2795,-140.991"/>
<polygon fill="#000000" stroke="#000000" points="1796.7795,-140.9909 1800.2795,-150.991 1803.7795,-140.991 1796.7795,-140.9909"/>
</g>
</g>
</svg>
